<svg width="762" height="684" viewBox="0 0 762 684" fill="none" xmlns="http://www.w3.org/2000/svg">
<g filter="url(#filter0_d_2_48)">
<path d="M28.7023 318.715L29.8407 320.48L29.8448 320.478L28.7023 318.715ZM32.1139 331.571L33.2122 333.362L33.2154 333.36L32.1139 331.571ZM31.0211 360.207L28.9936 359.656L28.9924 359.661L31.0211 360.207ZM35.0411 363.927L33.663 362.341L33.6619 362.342L35.0411 363.927ZM45.7259 378.023L43.6801 378.5L43.6812 378.505L45.7259 378.023ZM58.3645 391.862L58.7068 393.935L58.7101 393.934L58.3645 391.862ZM66.3107 400.403L66.0696 398.316L66.0558 398.318L66.3107 400.403ZM71.3262 418.733L73.389 419.131L73.3898 419.127L71.3262 418.733ZM77.885 424.89L79.6778 423.795L79.6723 423.786L77.885 424.89ZM87.9575 424.785L88.5372 426.804L88.5436 426.802L87.9575 424.785ZM91.4252 436.892L93.3899 437.636L93.3928 437.629L91.4252 436.892ZM97.1447 449.891L95.8036 451.508L95.8046 451.509L97.1447 449.891ZM102.106 462.863L104.185 463.165L104.186 463.161L102.106 462.863ZM140.645 488.711L140.085 490.736L140.087 490.736L140.645 488.711ZM144.122 500.79L145.599 499.296L145.589 499.286L144.122 500.79ZM156.218 540.637L158.304 540.891L158.304 540.891L156.218 540.637ZM157.17 561.764L159.242 562.111L159.243 562.107L157.17 561.764ZM167.832 576.22L165.731 576.269L165.732 576.276L167.832 576.22ZM181.337 576.714L181.23 574.616L181.227 574.616L181.337 576.714ZM199.031 643.714L200.493 642.206L200.488 642.201L199.031 643.714ZM211.036 631.867L213.136 631.843L213.136 631.834L211.036 631.867ZM216.149 618.414L214.866 616.75L214.865 616.751L216.149 618.414ZM219.71 599.49L221.017 601.135L221.018 601.134L219.71 599.49ZM223.227 569.094L225.292 569.482L225.292 569.481L223.227 569.094ZM230.337 543.136L231.965 544.465L231.967 544.462L230.337 543.136ZM246.289 523.874L245.688 521.861L245.687 521.861L246.289 523.874ZM266.893 534.027L264.813 533.729L264.813 533.732L266.893 534.027ZM297.911 556.709L299.293 555.126L299.292 555.125L297.911 556.709ZM315.232 563.963L317.253 563.392L317.252 563.389L315.232 563.963ZM325.949 577.67L327.242 576.015L327.24 576.013L325.949 577.67ZM323.861 585.965L324.98 587.743L324.986 587.739L323.861 585.965ZM321.383 600.357L323.237 599.369L323.234 599.362L321.383 600.357ZM309.682 607.651L310.563 609.558L310.567 609.556L309.682 607.651ZM303.167 618.704L302.522 616.705L302.52 616.706L303.167 618.704ZM306.48 627.35L306.997 625.314L306.996 625.314L306.48 627.35ZM313.469 620.915L313.991 622.95L313.997 622.949L313.469 620.915ZM319.434 630.478L319.167 628.394L319.156 628.396L319.145 628.397L319.434 630.478ZM332.868 625.996L334.606 624.816L334.603 624.812L332.868 625.996ZM366.098 638.481L366.518 636.422L366.509 636.42L366.098 638.481ZM381.627 649.462L382.243 651.47L382.252 651.467L381.627 649.462ZM375.827 637.593L374.21 638.935L374.212 638.937L375.827 637.593ZM402.916 631.299L403.675 629.34L403.665 629.336L402.916 631.299ZM408.245 626.681L407.977 628.765L407.979 628.765L408.245 626.681ZM429.345 599.721L430.354 601.564L430.357 601.562L429.345 599.721ZM429.516 585.165L431.165 583.864L431.163 583.861L429.516 585.165ZM438.506 583.839L440.077 582.445L440.076 582.444L438.506 583.839ZM449.714 583.8L447.613 583.786L447.613 583.791L449.714 583.8ZM455.246 587.987L457.294 588.454L457.294 588.452L455.246 587.987ZM464.34 596.625L462.324 597.216L462.328 597.228L464.34 596.625ZM478.299 608.256L478.32 610.357L478.326 610.357L478.299 608.256ZM494.601 595.523L496.696 595.361L496.695 595.354L494.601 595.523ZM508.107 596.016L507.972 593.92L507.965 593.92L508.107 596.016ZM511.681 588.6L511.804 590.697L511.804 590.697L511.681 588.6ZM524.693 566.861L526.789 566.718L526.789 566.718L524.693 566.861ZM537.329 568.817L536.848 566.772L536.841 566.774L537.329 568.817ZM535.478 555.671L537.549 555.319L537.549 555.318L535.478 555.671ZM541.441 547.26L542.819 548.845L541.441 547.26ZM561.455 554.696L560.036 553.147L560.033 553.149L561.455 554.696ZM563.546 534.541L564.53 536.398L564.534 536.395L563.546 534.541ZM590.157 511.76L588.647 510.3L588.646 510.301L590.157 511.76ZM621.521 505.367L622.774 507.054L622.775 507.053L621.521 505.367ZM638.427 501.111L637.248 499.372L637.247 499.373L638.427 501.111ZM655.45 494.944L657.523 494.605L657.523 494.602L655.45 494.944ZM676.569 491.323L675.141 489.782L675.14 489.782L676.569 491.323ZM698.912 480.907L698.928 478.806L698.924 478.806L698.912 480.907ZM708.966 468.925L707.714 467.238L707.709 467.242L708.966 468.925ZM719.877 467.723L721.821 468.521L719.877 467.723ZM720.361 448.231L718.712 446.93L718.711 446.931L720.361 448.231ZM725.231 420.977L726.984 419.82L726.984 419.819L725.231 420.977ZM716.7 397.462L714.891 396.394L714.89 396.396L716.7 397.462ZM726.534 406.885L725.156 405.3L725.15 405.305L726.534 406.885ZM722.311 394.367L720.652 393.077L720.645 393.087L722.311 394.367ZM734.039 404.327L732.185 403.339L732.181 403.345L734.039 404.327ZM718.848 364.293L716.747 364.241L716.747 364.245L718.848 364.293ZM706.316 330.922L704.23 330.668L704.23 330.669L706.316 330.922ZM693.457 290.648L691.639 291.701L691.642 291.705L693.457 290.648ZM698.809 268.02L700.902 267.846L700.902 267.841L698.809 268.02ZM705.862 242.826L706.216 240.755L706.215 240.755L705.862 242.826ZM693.865 230.931L695.134 229.257L695.132 229.256L693.865 230.931ZM642.19 234.456L642.242 232.356L642.234 232.355L642.19 234.456ZM629.327 242.073L630.883 243.485L630.887 243.48L629.327 242.073ZM584.469 241.814L584.724 239.729L584.721 239.728L584.469 241.814ZM551.269 253.074L553.189 253.926L553.191 253.922L551.269 253.074ZM527.316 264.536L528.637 266.169L528.641 266.166L527.316 264.536ZM501.182 267.817L500.94 269.904L500.942 269.904L501.182 267.817ZM461.952 276.362L461.306 274.362L461.304 274.363L461.952 276.362ZM425.063 278.56L424.692 276.493L424.688 276.493L425.063 278.56ZM404.557 266.895L404.464 264.796L404.46 264.796L404.557 266.895ZM384.312 262.902L384.3 260.802L384.297 260.802L384.312 262.902ZM374.618 257.309L374.046 259.33L374.054 259.332L374.618 257.309ZM374.148 246.539L372.512 245.221L372.506 245.228L374.148 246.539ZM356.688 211.712L354.755 212.535L354.756 212.537L356.688 211.712ZM342.122 215.745L340.502 214.407L340.501 214.407L342.122 215.745ZM308.312 241.879L309.772 240.368L309.77 240.366L308.312 241.879ZM317.22 217.955L315.19 217.415L315.189 217.416L317.22 217.955ZM328.866 205.325L330.876 205.935L330.877 205.934L328.866 205.325ZM302.633 210.141L300.894 211.32L300.898 211.326L302.633 210.141ZM306.188 191.202L304.192 191.857L304.194 191.864L306.188 191.202ZM293.428 191.155L293.082 193.227L293.086 193.228L293.428 191.155ZM280.334 166.547L282.367 167.077L282.367 167.076L280.334 166.547ZM272.534 143.824L273.589 142.007L273.586 142.006L272.534 143.824ZM221.049 120.58L222.509 119.069L222.508 119.068L221.049 120.58ZM198.277 131.75L200.249 132.475L200.25 132.471L198.277 131.75ZM191.128 128.601L192.039 130.494L192.043 130.492L191.128 128.601ZM188.396 123.054L186.317 122.756L186.316 122.759L188.396 123.054ZM183.552 126.176L181.522 126.716L181.522 126.717L183.552 126.176ZM172.661 115.143L174.537 114.197L174.536 114.196L172.661 115.143ZM158.833 119.607L158.23 117.594L158.227 117.595L158.833 119.607ZM141.512 130.364L142.73 132.076L142.732 132.074L141.512 130.364ZM96.8602 168.804L98.9213 169.211L98.9216 169.209L96.8602 168.804ZM82.0562 194.263L84.1205 194.653L84.1207 194.652L82.0562 194.263ZM61.1657 230.035L60.6459 228L60.6342 228.003L61.1657 230.035ZM50.0032 241.185L52.0892 241.435L52.0902 241.426L50.0032 241.185ZM33.543 286.06L35.5935 285.602L35.5932 285.601L33.543 286.06ZM30.506 303.107L29.0802 301.564L29.0794 301.564L30.506 303.107ZM395.219 642.312L393.129 642.523L393.129 642.526L395.219 642.312ZM417.912 638.431L419.32 636.872L419.317 636.869L417.912 638.431ZM337.882 185.251L336.38 186.72L336.384 186.724L337.882 185.251ZM316.913 186.567L315.044 185.607L315.043 185.609L316.913 186.567ZM170.686 67.9652L170.775 70.0641L170.783 70.0637L170.686 67.9652ZM199.805 78.2504L199.398 76.1893L199.39 76.191L199.381 76.1928L199.805 78.2504ZM193.931 43.424L192.367 42.022L192.366 42.0222L193.931 43.424ZM172.555 15.2245L173.013 13.1743L173.01 13.1736L172.555 15.2245ZM162.485 21.4741L162.187 23.5537L162.193 23.5545L162.485 21.4741ZM158.058 29.9931L160.085 30.5432L160.085 30.5425L158.058 29.9931ZM148.166 27.4328L147.288 25.5241L147.287 25.5247L148.166 27.4328ZM141.008 72.137L138.959 72.6041L138.96 72.6056L141.008 72.137ZM27.5639 316.949C25.8149 318.077 25.4276 320.235 25.3718 321.772C25.3095 323.49 25.6207 325.42 26.116 327.152C26.6064 328.867 27.3357 330.592 28.2428 331.828C28.686 332.432 29.2964 333.093 30.1013 333.487C31.0226 333.938 32.1634 334.005 33.2122 333.362L31.0157 329.78C31.3602 329.569 31.765 329.623 31.9499 329.714C32.0184 329.747 31.8923 329.699 31.6303 329.342C31.127 328.656 30.5714 327.451 30.1557 325.997C29.7448 324.56 29.5286 323.083 29.5707 321.925C29.6193 320.586 29.9683 320.398 29.8407 320.48L27.5639 316.949ZM33.2154 333.36C32.9798 333.505 32.42 333.71 31.7786 333.44C31.5172 333.33 31.3483 333.18 31.2574 333.082C31.1684 332.986 31.1305 332.914 31.1268 332.907C31.1246 332.903 31.1726 333 31.236 333.261C31.2958 333.507 31.3539 333.834 31.4045 334.248C31.611 335.937 31.6325 338.548 31.4808 341.615C31.1778 347.736 30.2126 355.164 28.9936 359.656L33.0486 360.757C34.3765 355.863 35.3663 348.106 35.6773 341.822C35.8326 338.686 35.8259 335.79 35.5752 333.739C35.4571 332.773 35.2571 331.723 34.8337 330.929C34.6243 330.537 34.2005 329.901 33.4091 329.567C32.4795 329.176 31.6002 329.42 31.0124 329.782L33.2154 333.36ZM28.9924 359.661C28.3593 362.013 27.9277 363.828 27.7494 365.127C27.6623 365.761 27.6125 366.422 27.6911 367.019C27.7607 367.548 28.0188 368.646 29.1304 369.211C30.1672 369.738 31.165 369.383 31.5846 369.203C32.0958 368.985 32.5994 368.652 33.0496 368.322C33.9627 367.653 35.1175 366.646 36.4204 365.512L33.6619 362.342C32.2995 363.528 31.3024 364.393 30.566 364.933C30.1915 365.207 29.9961 365.313 29.9324 365.34C29.9058 365.351 29.9911 365.309 30.1589 365.292C30.3403 365.274 30.67 365.28 31.0335 365.465C31.4092 365.656 31.6315 365.94 31.7443 366.156C31.7969 366.257 31.8245 366.339 31.8386 366.389C31.8527 366.439 31.8566 366.469 31.8569 366.471C31.8572 366.473 31.8551 366.458 31.8541 366.422C31.853 366.386 31.853 366.335 31.8559 366.266C31.8619 366.128 31.8786 365.941 31.9119 365.699C32.0502 364.692 32.416 363.108 33.0498 360.752L28.9924 359.661ZM36.4192 365.513C36.8167 365.167 37.0354 365.144 37.093 365.141C37.1593 365.138 37.3323 365.149 37.6527 365.366C38.3815 365.86 39.2671 367.006 40.1797 368.751C41.9533 372.142 43.2434 376.63 43.6801 378.5L47.7717 377.545C47.2991 375.521 45.9119 370.645 43.9029 366.804C42.9242 364.932 41.6422 362.995 40.01 361.888C39.1499 361.305 38.0941 360.887 36.8935 360.944C35.6842 361.002 34.5981 361.529 33.663 362.341L36.4192 365.513ZM43.6812 378.505C44.2024 380.714 45.8169 384.698 48.1898 388.03C50.4528 391.207 54.0757 394.7 58.7068 393.935L58.0222 389.789C56.0181 390.12 53.7804 388.637 51.6122 385.592C49.5539 382.702 48.1665 379.219 47.7706 377.54L43.6812 378.505ZM58.7101 393.934C59.3113 393.834 59.5877 393.898 59.6758 393.928C59.7286 393.946 59.7606 393.963 59.8199 394.047C60.0543 394.379 60.213 395.017 60.4222 396.332C60.5851 397.356 60.8017 399.039 61.5821 400.324C62.0221 401.049 62.6706 401.717 63.6046 402.13C64.5164 402.534 65.5239 402.616 66.5656 402.488L66.0558 398.318C65.5409 398.381 65.3407 398.304 65.3044 398.288C65.2904 398.282 65.2506 398.27 65.1735 398.143C64.9195 397.725 64.7857 397.017 64.5717 395.672C64.4038 394.617 64.1591 392.908 63.2529 391.624C62.7418 390.9 62.0192 390.291 61.0443 389.955C60.1047 389.632 59.0803 389.613 58.0188 389.79L58.7101 393.934ZM66.5517 402.49C67.4681 402.384 68.0001 402.644 68.4294 403.11C68.9537 403.68 69.4403 404.71 69.7494 406.3C70.3643 409.462 70.105 413.923 69.2626 418.34L73.3898 419.127C74.2761 414.48 74.6356 409.415 73.8738 405.498C73.4946 403.547 72.794 401.649 71.5216 400.266C70.1541 398.779 68.2799 398.061 66.0696 398.316L66.5517 402.49ZM69.2634 418.335C69.0311 419.539 68.9069 420.566 68.9034 421.434C68.9 422.283 69.0096 423.141 69.3819 423.897C69.7962 424.738 70.4661 425.31 71.2678 425.601C71.974 425.857 72.6721 425.854 73.1536 425.825C73.6205 425.797 74.179 425.717 74.5136 425.678C74.918 425.631 75.2092 425.612 75.4484 425.626C75.7955 425.648 75.9198 425.706 76.0976 425.994L79.6723 423.786C78.6232 422.088 77.0952 421.519 75.7086 421.433C75.0809 421.394 74.485 421.451 74.025 421.505C73.4951 421.567 73.2119 421.613 72.9028 421.631C72.6084 421.649 72.5962 421.613 72.7008 421.651C72.901 421.723 73.0781 421.892 73.1514 422.041C73.1826 422.104 73.1029 421.98 73.105 421.451C73.1071 420.943 73.1832 420.198 73.3889 419.131L69.2634 418.335ZM76.0922 425.985C76.8716 427.261 77.8583 428.214 79.1252 428.699C80.3721 429.177 81.6048 429.092 82.6589 428.858C83.6864 428.63 84.7385 428.213 85.6659 427.844C86.6469 427.453 87.5671 427.083 88.5372 426.804L87.3778 422.766C86.1689 423.113 85.0462 423.568 84.112 423.94C83.1243 424.333 82.3889 424.614 81.7486 424.756C81.1349 424.892 80.8193 424.849 80.6293 424.776C80.4594 424.711 80.1207 424.52 79.6777 423.795L76.0922 425.985ZM88.5436 426.802C88.7191 426.751 88.7503 426.784 88.7148 426.772C88.6961 426.765 88.7645 426.78 88.8985 426.944C89.2086 427.325 89.5536 428.117 89.7788 429.338C90.228 431.773 89.9972 434.714 89.4576 436.156L93.3928 437.629C94.2596 435.312 94.4631 431.57 93.9107 428.576C93.6352 427.082 93.1206 425.473 92.1543 424.289C91.6501 423.67 90.976 423.112 90.1034 422.806C89.2141 422.495 88.2799 422.503 87.3713 422.767L88.5436 426.802ZM89.4605 436.148C87.5819 441.11 90.0037 446.698 95.8036 451.508L98.4858 448.274C93.2853 443.961 92.4445 440.133 93.3898 437.636L89.4605 436.148ZM95.8046 451.509C98.3677 453.632 99.4712 455.322 99.9506 456.86C100.443 458.44 100.374 460.143 100.026 462.565L104.186 463.161C104.547 460.643 104.751 458.141 103.962 455.61C103.161 453.038 101.429 450.712 98.4848 448.273L95.8046 451.509ZM100.027 462.561C99.8975 463.452 100.163 464.259 100.449 464.853C100.747 465.472 101.172 466.075 101.643 466.644C102.587 467.783 103.923 469.031 105.471 470.314C108.585 472.893 112.832 475.837 117.276 478.656C121.73 481.483 126.435 484.217 130.491 486.376C134.478 488.498 138.026 490.166 140.085 490.736L141.205 486.686C139.655 486.257 136.492 484.81 132.465 482.667C128.507 480.561 123.895 477.88 119.527 475.109C115.149 472.331 111.069 469.494 108.152 467.078C106.685 465.863 105.578 464.809 104.879 463.964C104.528 463.54 104.331 463.23 104.234 463.03C104.127 462.806 104.225 462.889 104.185 463.165L100.027 462.561ZM140.087 490.736C141.477 491.119 141.787 491.617 141.899 491.874C142.077 492.284 142.113 492.94 141.924 494.084C141.833 494.638 141.713 495.18 141.584 495.822C141.461 496.428 141.332 497.11 141.27 497.787C141.15 499.101 141.234 500.907 142.654 502.293L145.589 499.286C145.548 499.246 145.371 499.078 145.454 498.17C145.494 497.737 145.582 497.246 145.702 496.655C145.814 496.1 145.962 495.422 146.07 494.769C146.28 493.498 146.446 491.794 145.751 490.198C144.99 488.449 143.425 487.297 141.202 486.685L140.087 490.736ZM142.644 502.283C143.003 502.637 143.452 503.405 143.862 504.755C144.258 506.058 144.557 507.698 144.76 509.576C145.164 513.326 145.159 517.793 144.892 521.905L149.084 522.177C149.362 517.908 149.375 513.187 148.937 509.125C148.718 507.096 148.381 505.175 147.882 503.533C147.397 501.938 146.694 500.378 145.599 499.296L142.644 502.283ZM144.892 521.905C144.555 527.087 147.733 530.645 150.152 533.324C151.444 534.755 152.517 535.918 153.262 537.126C153.968 538.271 154.266 539.287 154.133 540.384L158.304 540.891C158.586 538.566 157.871 536.595 156.839 534.921C155.846 533.31 154.458 531.823 153.27 530.508C150.73 527.694 148.877 525.375 149.084 522.177L144.892 521.905ZM154.133 540.384C153.676 544.136 154.287 547.827 154.773 551.216C155.272 554.697 155.666 557.98 155.097 561.422L159.243 562.107C159.928 557.959 159.43 554.096 158.932 550.62C158.42 547.051 157.929 543.974 158.304 540.891L154.133 540.384ZM155.098 561.418C154.241 566.539 157.946 569.81 160.716 571.919C162.287 573.116 163.522 573.92 164.565 574.83C165.638 575.764 165.729 576.191 165.731 576.269L169.932 576.171C169.884 574.141 168.461 572.651 167.327 571.663C166.164 570.649 164.502 569.521 163.262 568.577C160.409 566.404 158.833 564.556 159.242 562.111L155.098 561.418ZM165.732 576.276C165.753 577.084 165.94 577.914 166.432 578.643C166.936 579.391 167.636 579.849 168.354 580.107C169.646 580.57 171.179 580.443 172.453 580.262C173.788 580.072 175.379 579.724 176.86 579.441C178.402 579.145 179.948 578.891 181.448 578.812L181.227 574.616C179.433 574.711 177.659 575.009 176.069 575.314C174.417 575.631 173.064 575.931 171.861 576.102C170.595 576.282 169.995 576.231 169.773 576.152C169.734 576.138 169.832 576.17 169.916 576.295C169.988 576.402 169.938 576.413 169.932 576.164L165.732 576.276ZM181.444 578.812C182.554 578.755 183.063 579.076 183.39 579.455C183.811 579.944 184.186 580.844 184.37 582.334C184.738 585.328 184.215 589.497 183.539 593.911L187.692 594.547C188.35 590.248 188.992 585.491 188.54 581.821C188.313 579.98 187.781 578.114 186.572 576.711C185.269 575.199 183.424 574.504 181.23 574.616L181.444 578.812ZM183.539 593.911C182.826 598.573 183.152 604.689 184.294 610.204C184.867 612.975 185.659 615.656 186.666 617.974C187.661 620.262 188.929 622.346 190.535 623.768L193.321 620.622C192.365 619.776 191.398 618.319 190.52 616.299C189.655 614.309 188.939 611.917 188.408 609.352C187.341 604.196 187.073 598.598 187.692 594.547L183.539 593.911ZM190.535 623.768C191.415 624.548 192.192 625.903 192.856 627.815C193.507 629.694 193.974 631.88 194.378 634.112C194.769 636.264 195.12 638.582 195.514 640.4C195.715 641.328 195.947 642.226 196.236 643.004C196.509 643.739 196.912 644.591 197.573 645.227L200.488 642.201C200.513 642.225 200.377 642.087 200.174 641.54C199.987 641.036 199.805 640.361 199.621 639.511C199.244 637.773 198.939 635.715 198.513 633.362C198.1 631.087 197.588 628.637 196.825 626.438C196.074 624.273 195.001 622.111 193.321 620.622L190.535 623.768ZM197.568 645.222C198.414 646.043 199.475 646.27 200.401 646.217C201.286 646.166 202.149 645.864 202.908 645.495C204.438 644.753 206.05 643.493 207.486 642.078C208.937 640.648 210.316 638.953 211.344 637.244C212.334 635.596 213.158 633.671 213.136 631.843L208.935 631.891C208.943 632.547 208.599 633.654 207.742 635.08C206.922 636.444 205.775 637.865 204.537 639.085C203.284 640.32 202.043 641.245 201.073 641.716C200.584 641.953 200.285 642.015 200.162 642.022C200.08 642.027 200.285 642.004 200.493 642.206L197.568 645.222ZM213.136 631.834C213.062 627.117 214.551 622.302 217.433 620.076L214.865 616.751C210.436 620.172 208.852 626.649 208.935 631.9L213.136 631.834ZM217.432 620.078C219.114 618.78 219.53 616.655 219.658 614.971C219.793 613.203 219.65 611.11 219.563 609.255C219.472 607.299 219.434 605.522 219.673 604.026C219.912 602.533 220.376 601.644 221.017 601.135L218.404 597.845C216.589 599.286 215.84 601.384 215.524 603.363C215.209 605.339 215.276 607.518 215.366 609.452C215.462 611.486 215.579 613.216 215.469 614.652C215.353 616.173 215.019 616.632 214.866 616.75L217.432 620.078ZM221.018 601.134C222.87 599.661 223.702 597.202 224.141 594.807C224.597 592.323 224.716 589.377 224.739 586.395C224.75 584.893 224.737 583.35 224.725 581.825C224.713 580.294 224.702 578.781 224.717 577.308C224.747 574.342 224.883 571.657 225.292 569.482L221.162 568.707C220.683 571.261 220.547 574.253 220.516 577.265C220.5 578.781 220.511 580.331 220.523 581.858C220.535 583.392 220.548 584.9 220.537 586.363C220.515 589.311 220.394 591.947 220.008 594.05C219.607 596.241 218.998 597.373 218.402 597.846L221.018 601.134ZM225.292 569.481C225.743 567.07 226.099 564.608 226.452 562.229C226.808 559.832 227.16 557.515 227.61 555.31C228.517 550.864 229.77 547.152 231.965 544.465L228.71 541.807C225.853 545.306 224.436 549.847 223.493 554.47C223.018 556.801 222.65 559.223 222.296 561.613C221.939 564.021 221.595 566.393 221.162 568.708L225.292 569.481ZM231.967 544.462C233.36 542.75 234.472 540.799 235.476 538.9C236.512 536.94 237.4 535.106 238.455 533.316C240.516 529.82 242.892 527.081 246.89 525.887L245.687 521.861C240.211 523.497 237.125 527.299 234.836 531.182C233.716 533.082 232.707 535.147 231.761 536.936C230.783 538.786 229.829 540.433 228.708 541.81L231.967 544.462ZM246.889 525.888C250.896 524.692 255.625 525.772 259.376 527.875C261.23 528.914 262.722 530.138 263.683 531.301C264.698 532.53 264.865 533.366 264.813 533.729L268.972 534.325C269.274 532.222 268.225 530.202 266.922 528.625C265.563 526.98 263.634 525.445 261.431 524.21C257.067 521.764 251.14 520.234 245.688 521.861L246.889 525.888ZM264.813 533.732C264.521 535.788 265.41 537.546 266.613 538.869C267.804 540.179 269.446 541.238 271.158 542.053C274.555 543.671 278.833 544.61 281.994 544.364L281.67 540.175C279.395 540.352 275.853 539.635 272.964 538.26C271.533 537.578 270.416 536.805 269.721 536.042C269.038 535.291 268.914 534.733 268.973 534.322L264.813 533.732ZM281.994 544.364C283.519 544.246 284.88 545.183 287.28 548.048C289.5 550.696 292.34 554.638 296.53 558.292L299.292 555.125C295.43 551.758 292.948 548.27 290.501 545.349C288.234 542.644 285.582 539.872 281.67 540.175L281.994 544.364ZM296.529 558.291C301.201 562.37 305.708 562.194 308.791 562.153C310.42 562.132 311.264 562.178 311.86 562.447C312.233 562.615 312.771 562.991 313.211 564.537L317.252 563.389C316.585 561.04 315.413 559.44 313.589 558.617C311.989 557.895 310.153 557.933 308.736 557.952C305.727 557.991 302.68 558.084 299.293 555.126L296.529 558.291ZM313.21 564.534C314.365 568.624 315.69 571.219 317.631 573.407C319.466 575.476 321.845 577.137 324.658 579.328L327.24 576.013C324.152 573.609 322.272 572.308 320.774 570.619C319.38 569.047 318.297 567.087 317.253 563.392L313.21 564.534ZM324.656 579.326C326.14 580.485 326.93 581.198 327.306 581.67C327.483 581.893 327.451 581.921 327.42 581.79C327.371 581.589 327.401 581.35 327.487 581.176C327.54 581.067 327.561 581.097 327.359 581.27C327.168 581.434 326.875 581.643 326.432 581.926C325.993 582.207 325.476 582.516 324.844 582.896C324.223 583.269 323.514 583.698 322.735 584.191L324.986 587.739C325.719 587.274 326.392 586.868 327.009 586.497C327.617 586.131 328.195 585.786 328.694 585.467C329.189 585.151 329.676 584.817 330.093 584.461C330.5 584.112 330.957 583.644 331.26 583.024C331.596 582.339 331.69 581.578 331.505 580.808C331.337 580.109 330.968 579.524 330.593 579.053C329.866 578.14 328.694 577.149 327.242 576.015L324.656 579.326ZM322.741 584.188C319.241 586.392 317.492 589.253 317.22 592.479C316.96 595.551 318.07 598.629 319.533 601.351L323.234 599.362C321.925 596.926 321.248 594.714 321.407 592.833C321.553 591.105 322.428 589.35 324.98 587.743L322.741 584.188ZM319.529 601.345C320.155 602.518 319.8 602.513 319.992 602.158C320.093 601.972 320.1 602.181 318.93 602.549C317.09 603.127 312.92 603.83 308.797 605.746L310.567 609.556C314.425 607.764 317.484 607.406 320.189 606.557C321.29 606.211 322.899 605.616 323.688 604.156C324.569 602.528 323.99 600.781 323.237 599.369L319.529 601.345ZM308.801 605.744C306.516 606.799 305.046 608.119 304.251 609.734C303.477 611.306 303.503 612.86 303.56 613.95C303.591 614.564 303.627 614.935 303.629 615.35C303.631 615.729 303.598 615.934 303.56 616.054C303.553 616.076 303.545 616.375 302.522 616.705L303.812 620.704C305.749 620.079 307.04 618.979 307.565 617.325C307.793 616.606 307.834 615.903 307.831 615.326C307.827 614.785 307.777 614.151 307.756 613.733C307.705 612.758 307.752 612.136 308.021 611.59C308.269 611.085 308.865 610.342 310.563 609.558L308.801 605.744ZM302.52 616.706C300.768 617.273 299.304 618.2 298.503 619.606C297.655 621.094 297.781 622.704 298.409 624.053C299.583 626.573 302.58 628.529 305.964 629.387L306.996 625.314C304.273 624.624 302.654 623.215 302.218 622.279C302.041 621.899 302.113 621.757 302.154 621.686C302.24 621.534 302.605 621.094 303.814 620.703L302.52 616.706ZM305.962 629.386C307.856 629.867 309.549 629.74 310.938 628.852C312.25 628.012 312.92 626.718 313.319 625.721C313.525 625.207 313.69 624.688 313.826 624.257C313.972 623.795 314.079 623.45 314.195 623.151C314.49 622.388 314.521 622.814 313.991 622.95L312.947 618.88C311.235 619.319 310.562 620.895 310.276 621.636C310.1 622.09 309.947 622.586 309.819 622.994C309.681 623.431 309.559 623.81 309.419 624.158C309.127 624.887 308.873 625.185 308.674 625.312C308.551 625.391 308.145 625.606 306.997 625.314L305.962 629.386ZM313.997 622.949C313.432 623.095 313.04 622.825 312.989 622.783C312.979 622.775 313.096 622.881 313.308 623.245C313.723 623.959 314.154 625.032 314.642 626.315C315.094 627.504 315.605 628.9 316.131 629.952C316.391 630.472 316.729 631.063 317.164 631.539C317.562 631.974 318.444 632.736 319.723 632.559L319.145 628.397C319.936 628.287 320.338 628.783 320.263 628.701C320.225 628.66 320.095 628.484 319.889 628.072C319.483 627.261 319.068 626.134 318.569 624.821C318.105 623.603 317.559 622.196 316.939 621.132C316.634 620.608 316.219 620 315.659 619.539C315.058 619.044 314.097 618.582 312.941 618.882L313.997 622.949ZM319.701 632.562C320.154 632.504 320.538 632.34 320.793 632.215C321.069 632.079 321.339 631.915 321.584 631.753C322.071 631.431 322.614 631.015 323.148 630.598C324.264 629.727 325.457 628.763 326.697 627.956C327.971 627.128 329.024 626.651 329.805 626.555C330.156 626.512 330.378 626.555 330.529 626.62C330.671 626.68 330.883 626.815 331.133 627.18L334.603 624.812C333.966 623.878 333.155 623.172 332.177 622.754C331.207 622.341 330.212 622.271 329.29 622.385C327.523 622.603 325.804 623.525 324.406 624.435C322.974 625.367 321.594 626.481 320.563 627.286C320.024 627.707 319.599 628.028 319.265 628.249C319.1 628.358 318.996 628.417 318.941 628.444C318.864 628.482 318.958 628.421 319.167 628.394L319.701 632.562ZM331.13 627.176C331.776 628.128 332.729 628.958 333.763 629.681C334.818 630.418 336.075 631.125 337.448 631.796C340.192 633.138 343.546 634.413 346.998 635.558C353.905 637.849 361.413 639.689 365.688 640.541L366.509 636.42C362.383 635.598 355.045 633.8 348.321 631.57C344.956 630.454 341.799 629.247 339.294 628.021C338.041 627.409 336.989 626.81 336.17 626.237C335.33 625.65 334.843 625.166 334.606 624.816L331.13 627.176ZM365.679 640.539C369.035 641.223 371.203 643.728 373.444 646.519C374.476 647.805 375.638 649.296 376.911 650.3C378.298 651.396 380.092 652.13 382.243 651.47L381.011 647.453C380.592 647.581 380.209 647.551 379.514 647.002C378.705 646.363 377.878 645.331 376.72 643.888C374.579 641.222 371.551 637.448 366.518 636.422L365.679 640.539ZM382.252 651.467C383.705 651.015 385.383 650.118 385.714 648.199C385.862 647.338 385.669 646.546 385.412 645.916C385.154 645.284 384.775 644.679 384.372 644.122C383.573 643.019 382.439 641.79 381.267 640.525C380.06 639.223 378.745 637.816 377.442 636.25L374.212 638.937C375.601 640.607 376.998 642.101 378.186 643.381C379.407 644.699 380.349 645.732 380.969 646.587C381.275 647.009 381.442 647.308 381.522 647.504C381.603 647.702 381.542 647.665 381.573 647.486C381.668 646.931 382.116 647.109 381.002 647.456L382.252 651.467ZM377.443 636.252C377.057 635.786 377.228 635.733 377.177 635.916C377.165 635.958 377.233 635.699 377.917 635.26C379.271 634.392 381.8 633.605 385.017 633.062C388.16 632.531 391.699 632.274 394.875 632.317C398.118 632.361 400.735 632.715 402.166 633.261L403.665 629.336C401.513 628.514 398.28 628.161 394.931 628.116C391.516 628.07 387.723 628.343 384.317 628.919C380.986 629.481 377.751 630.376 375.65 631.723C374.607 632.392 373.524 633.374 373.13 634.785C372.696 636.337 373.253 637.781 374.21 638.935L377.443 636.252ZM402.157 633.258C403.118 633.63 403.991 633.887 404.759 633.957C405.501 634.024 406.585 633.948 407.409 633.103C408.195 632.297 408.243 631.29 408.229 630.788C408.213 630.244 408.096 629.68 408.02 629.309C407.928 628.863 407.865 628.57 407.837 628.306C407.808 628.028 407.852 628.045 407.797 628.193C407.698 628.46 407.466 628.666 407.279 628.735C407.206 628.763 407.363 628.686 407.977 628.765L408.513 624.597C407.592 624.479 406.655 624.485 405.814 624.797C404.86 625.152 404.188 625.846 403.86 626.726C403.577 627.486 403.605 628.241 403.659 628.747C403.714 629.267 403.832 629.805 403.905 630.158C403.993 630.587 404.026 630.793 404.029 630.909C404.034 631.067 403.971 630.611 404.401 630.17C404.87 629.689 405.354 629.791 405.137 629.772C404.948 629.755 404.504 629.661 403.675 629.34L402.157 633.258ZM407.979 628.765C410.225 629.051 412.066 628.255 413.535 626.994C414.929 625.798 416.045 624.139 417.012 622.52C417.505 621.695 417.989 620.827 418.462 619.984C418.94 619.13 419.41 618.295 419.901 617.486C420.888 615.855 421.89 614.444 423.021 613.384L420.147 610.319C418.599 611.77 417.363 613.566 416.307 615.309C415.775 616.187 415.273 617.08 414.796 617.93C414.314 618.791 413.861 619.602 413.405 620.366C412.474 621.924 411.644 623.08 410.798 623.806C410.027 624.468 409.335 624.702 408.511 624.597L407.979 628.765ZM423.021 613.384C426.153 610.447 426.808 607.681 427.386 605.627C427.669 604.62 427.893 603.946 428.279 603.347C428.637 602.792 429.211 602.19 430.354 601.564L428.336 597.879C426.667 598.792 425.535 599.849 424.747 601.072C423.987 602.252 423.626 603.476 423.341 604.489C422.783 606.475 422.369 608.235 420.147 610.319L423.021 613.384ZM430.357 601.562C433.379 599.901 435.763 597.668 435.91 594.259C436.044 591.141 434.222 587.739 431.165 583.864L427.867 586.466C430.875 590.28 431.775 592.613 431.712 594.079C431.662 595.254 430.928 596.454 428.333 597.88L430.357 601.562ZM431.163 583.861C430.477 582.995 430.077 582.319 429.865 581.826C429.647 581.319 429.679 581.125 429.674 581.155C429.66 581.258 429.573 581.411 429.459 581.491C429.404 581.529 429.48 581.454 429.821 581.435C430.512 581.395 431.672 581.62 433.046 582.285C434.385 582.934 435.776 583.93 436.935 585.234L440.076 582.444C438.527 580.7 436.681 579.377 434.877 578.504C433.107 577.647 431.218 577.146 429.579 577.24C428.754 577.288 427.845 577.496 427.062 578.04C426.22 578.625 425.663 579.508 425.514 580.571C425.375 581.561 425.607 582.559 426.004 583.484C426.407 584.422 427.035 585.417 427.869 586.47L431.163 583.861ZM436.934 585.233C439.763 588.423 443.071 590.577 446.081 590.637C447.702 590.669 449.254 590.076 450.346 588.719C451.381 587.433 451.806 585.707 451.814 583.809L447.613 583.791C447.607 585.141 447.299 585.804 447.073 586.084C446.904 586.294 446.666 586.446 446.164 586.436C444.925 586.411 442.642 585.337 440.077 582.445L436.934 585.233ZM451.814 583.814C451.823 582.477 452.199 582.299 452.064 582.397C451.825 582.572 451.709 582.371 452.014 582.557C452.656 582.947 453.859 584.603 453.197 587.523L457.294 588.452C458.261 584.19 456.719 580.501 454.198 578.967C452.922 578.191 451.121 577.883 449.586 579.005C448.155 580.05 447.625 581.872 447.613 583.786L451.814 583.814ZM453.197 587.52C452.693 589.733 452.963 591.642 454.188 593.108C455.287 594.424 456.887 595.02 458.08 595.394C459.511 595.842 460.408 596.007 461.324 596.404C462.111 596.745 462.265 597.013 462.324 597.216L466.356 596.034C465.788 594.094 464.286 593.108 462.994 592.548C461.831 592.045 460.227 591.663 459.336 591.384C458.208 591.031 457.668 590.72 457.412 590.414C457.281 590.257 456.981 589.828 457.294 588.454L453.197 587.52ZM462.328 597.228C462.75 598.638 463.629 600.133 464.677 601.525C465.744 602.943 467.075 604.371 468.524 605.646C469.969 606.919 471.575 608.079 473.202 608.927C474.803 609.76 476.578 610.374 478.32 610.357L478.279 606.156C477.501 606.163 476.432 605.872 475.144 605.2C473.882 604.543 472.554 603.597 471.301 602.493C470.05 601.392 468.917 600.171 468.034 598.998C467.131 597.799 466.574 596.76 466.353 596.023L462.328 597.228ZM478.326 610.357C481.762 610.313 483.651 608.349 484.96 607.078C486.279 605.797 487.026 605.175 488.544 605.274L488.816 601.081C485.327 600.854 483.396 602.74 482.033 604.064C480.66 605.397 479.863 606.135 478.273 606.156L478.326 610.357ZM488.544 605.274C491.37 605.458 493.873 604.858 495.393 602.709C496.76 600.777 496.908 598.109 496.696 595.361L492.507 595.684C492.711 598.332 492.407 599.655 491.963 600.283C491.672 600.694 491.006 601.223 488.816 601.081L488.544 605.274ZM496.695 595.354C496.657 594.879 496.748 594.866 496.654 595.035C496.504 595.305 496.248 595.417 496.163 595.435C496.15 595.438 496.19 595.428 496.305 595.431C496.419 595.435 496.575 595.45 496.782 595.487C497.204 595.561 497.729 595.702 498.375 595.904C499.526 596.264 501.338 596.925 502.898 597.369C504.542 597.838 506.423 598.236 508.249 598.112L507.965 593.92C506.872 593.994 505.552 593.757 504.049 593.329C502.461 592.876 501.181 592.38 499.631 591.894C498.927 591.674 498.199 591.47 497.509 591.348C496.844 591.232 496.042 591.159 495.253 591.333C494.379 591.527 493.515 592.036 492.982 592.994C492.505 593.852 492.437 594.821 492.507 595.691L496.695 595.354ZM508.242 598.113C510.14 597.991 511.725 597.269 512.546 595.699C513.241 594.371 513.11 592.88 512.997 591.977C512.941 591.521 512.846 590.951 512.8 590.631C512.743 590.226 512.726 589.997 512.731 589.863C512.737 589.707 512.765 589.951 512.525 590.256C512.218 590.645 511.838 590.695 511.804 590.697L511.558 586.503C510.747 586.55 509.855 586.855 509.225 587.655C508.66 588.371 508.552 589.184 508.532 589.703C508.511 590.243 508.579 590.794 508.641 591.225C508.715 591.74 508.774 592.059 508.828 592.496C508.938 593.377 508.859 593.682 508.823 593.752C508.823 593.752 508.824 593.749 508.828 593.744C508.831 593.739 508.836 593.734 508.84 593.73C508.849 593.72 508.846 593.728 508.811 593.747C508.734 593.788 508.496 593.886 507.972 593.92L508.242 598.113ZM511.804 590.697C513.253 590.612 514.302 589.902 515.053 589.186C515.713 588.557 516.385 587.659 516.803 587.159C517.308 586.555 517.73 586.14 518.196 585.869C518.615 585.625 519.163 585.445 520.01 585.501L520.283 581.308C518.619 581.2 517.24 581.565 516.085 582.236C514.976 582.881 514.176 583.751 513.58 584.463C512.896 585.281 512.587 585.731 512.153 586.145C511.812 586.471 511.656 586.497 511.557 586.503L511.804 590.697ZM520.01 585.501C522.234 585.645 523.818 584.433 524.796 582.897C525.717 581.454 526.223 579.582 526.519 577.755C527.118 574.054 526.988 569.641 526.789 566.718L522.597 567.003C522.791 569.851 522.891 573.873 522.371 577.083C522.108 578.71 521.716 579.913 521.254 580.639C520.849 581.273 520.564 581.326 520.283 581.308L520.01 585.501ZM526.789 566.718C526.749 566.126 526.864 566.177 526.707 566.435C526.419 566.906 525.925 567.008 525.762 567.007C525.732 567.006 525.899 567.014 526.372 567.21C526.806 567.389 527.33 567.653 527.967 567.99C529.176 568.631 530.78 569.536 532.373 570.168C533.94 570.789 535.896 571.319 537.817 570.861L536.841 566.774C536.211 566.924 535.264 566.794 533.922 566.262C532.607 565.74 531.296 564.999 529.935 564.278C529.287 563.935 528.611 563.588 527.975 563.326C527.379 563.08 526.605 562.814 525.807 562.805C524.876 562.795 523.787 563.155 523.121 564.245C522.586 565.121 522.539 566.154 522.597 567.004L526.789 566.718ZM537.81 570.862C538.641 570.667 539.449 570.344 540.113 569.789C540.818 569.198 541.248 568.435 541.416 567.593C541.708 566.123 541.15 564.585 540.682 563.459C540.421 562.832 540.112 562.17 539.808 561.521C539.498 560.858 539.186 560.194 538.888 559.504C538.291 558.123 537.789 556.728 537.549 555.319L533.407 556.024C533.728 557.911 534.377 559.658 535.031 561.171C535.359 561.929 535.698 562.651 536.002 563.302C536.313 563.966 536.583 564.544 536.802 565.073C537.024 565.605 537.165 566.017 537.239 566.339C537.315 566.669 537.292 566.786 537.295 566.774C537.308 566.705 537.364 566.61 537.415 566.567C537.423 566.56 537.296 566.667 536.848 566.772L537.81 570.862ZM537.549 555.318C537.3 553.862 537.39 553.035 537.537 552.563C537.666 552.152 537.877 551.882 538.234 551.609C538.674 551.274 539.21 551.019 540.082 550.581C540.876 550.182 541.886 549.657 542.819 548.845L540.063 545.674C539.56 546.112 538.965 546.44 538.197 546.826C537.506 547.173 536.519 547.633 535.687 548.267C534.773 548.964 533.962 549.918 533.527 551.309C533.111 552.641 533.095 554.196 533.408 556.025L537.549 555.318ZM542.819 548.845C542.823 548.842 542.767 548.892 542.646 548.931C542.519 548.974 542.38 548.985 542.255 548.967C542.031 548.937 542.02 548.845 542.216 549.029C542.624 549.414 543.195 550.3 543.768 551.691C544.893 554.423 545.614 558.079 545.454 560.546L549.647 560.818C549.858 557.564 548.959 553.262 547.653 550.091C547.01 548.53 546.164 546.978 545.099 545.973C544.558 545.463 543.798 544.939 542.83 544.805C541.767 544.659 540.806 545.028 540.063 545.674L542.819 548.845ZM545.454 560.546C545.397 561.422 545.457 562.337 545.8 563.156C546.177 564.06 546.876 564.778 547.858 565.107C548.741 565.404 549.629 565.31 550.344 565.132C551.08 564.949 551.833 564.627 552.567 564.242C555.436 562.738 559.186 559.634 562.876 556.243L560.033 553.149C556.331 556.551 552.943 559.301 550.615 560.521C550.05 560.818 549.625 560.982 549.331 561.055C549.015 561.133 549.021 561.066 549.195 561.124C549.469 561.216 549.633 561.433 549.676 561.536C549.685 561.556 549.611 561.372 549.647 560.818L545.454 560.546ZM562.873 556.246C567.473 552.033 566.96 546.361 566.136 542.294C565.926 541.254 565.681 540.256 565.471 539.385C565.256 538.488 565.083 537.747 564.982 537.118C564.875 536.461 564.882 536.124 564.907 535.987C564.917 535.931 564.855 536.225 564.53 536.398L562.562 532.685C561.434 533.283 560.937 534.314 560.771 535.248C560.618 536.101 560.708 537.008 560.834 537.789C560.965 538.599 561.176 539.492 561.386 540.367C561.603 541.267 561.826 542.179 562.018 543.127C562.805 547.015 562.851 550.568 560.036 553.147L562.873 556.246ZM564.534 536.395C565.512 535.874 567.166 534.69 569.11 533.194C571.105 531.659 573.541 529.688 576.142 527.494C581.336 523.113 587.249 517.792 591.667 513.22L588.646 510.301C584.366 514.73 578.571 519.948 573.433 524.282C570.868 526.445 568.482 528.376 566.547 529.865C564.562 531.393 563.178 532.357 562.558 532.687L564.534 536.395ZM591.667 513.221C595.341 509.422 600.899 508.817 606.954 508.871C609.804 508.897 612.95 509.075 615.525 508.98C618.086 508.884 620.795 508.523 622.774 507.054L620.269 503.681C619.406 504.321 617.862 504.688 615.369 504.781C612.891 504.873 610.183 504.698 606.991 504.67C600.961 504.616 593.678 505.098 588.647 510.3L591.667 513.221ZM622.775 507.053C625.037 505.371 627.23 505.25 630.024 505.196C632.765 505.144 636.189 505.172 639.608 502.848L637.247 499.373C634.999 500.901 632.816 500.941 629.944 500.995C627.124 501.049 623.697 501.131 620.268 503.682L622.775 507.053ZM639.607 502.849C642.494 500.891 646.398 498.191 649.677 496.579C651.365 495.749 652.592 495.362 653.308 495.337C653.63 495.326 653.611 495.399 653.48 495.304C653.307 495.179 653.34 495.062 653.377 495.287L657.523 494.602C657.351 493.564 656.873 492.574 655.943 491.9C655.055 491.258 654.033 491.108 653.162 491.138C651.493 491.196 649.579 491.945 647.824 492.808C644.217 494.58 640.027 497.487 637.248 499.372L639.607 502.849ZM653.377 495.283C653.784 497.775 655.863 498.927 657.771 499.353C659.696 499.783 662.048 499.663 664.388 499.229C669.063 498.36 674.543 496.068 677.998 492.863L675.14 489.782C672.427 492.299 667.758 494.329 663.621 495.098C661.555 495.481 659.834 495.508 658.687 495.252C657.522 494.992 657.527 494.626 657.523 494.605L653.377 495.283ZM677.997 492.864C680.914 490.161 684.672 487.664 688.488 485.854C692.336 484.028 696.05 482.991 698.9 483.007L698.924 478.806C695.19 478.785 690.82 480.096 686.687 482.058C682.521 484.034 678.399 486.763 675.141 489.782L677.997 492.864ZM698.896 483.007C703.528 483.043 705.855 479.454 707.224 476.654C707.873 475.325 708.575 473.566 709.029 472.576C709.609 471.312 709.996 470.778 710.224 470.608L707.709 467.242C706.515 468.134 705.755 469.635 705.21 470.824C704.539 472.288 704.137 473.401 703.449 474.809C702.143 477.481 700.864 478.821 698.928 478.806L698.896 483.007ZM710.218 470.612C710.355 470.51 709.882 470.923 709.129 470.651C708.468 470.412 708.346 469.9 708.414 470.083C708.527 470.385 708.629 471.192 708.617 472.523C708.594 475.101 708.213 478.038 708.113 479.587L712.306 479.859C712.377 478.764 712.795 475.246 712.818 472.56C712.83 471.258 712.766 469.729 712.352 468.617C712.157 468.094 711.682 467.105 710.555 466.699C709.338 466.259 708.287 466.812 707.714 467.238L710.218 470.612ZM708.113 479.587C708.091 479.916 708.101 480.413 708.318 480.929C708.571 481.53 709.079 482.07 709.821 482.3C710.459 482.498 711.026 482.389 711.358 482.291C711.713 482.186 712.025 482.025 712.275 481.875C713.221 481.308 714.312 480.248 715.362 479.034C717.527 476.531 720.117 472.674 721.821 468.521L717.934 466.926C716.424 470.604 714.093 474.079 712.185 476.285C711.198 477.426 710.463 478.063 710.114 478.272C710.041 478.316 710.063 478.292 710.165 478.262C710.245 478.238 710.598 478.142 711.065 478.287C711.636 478.464 712.016 478.886 712.19 479.298C712.263 479.472 712.289 479.617 712.299 479.702C712.31 479.789 712.307 479.845 712.306 479.859L708.113 479.587ZM721.821 468.521C723.798 463.701 721.91 459.978 720.926 457.317C720.41 455.922 720.105 454.812 720.17 453.675C720.231 452.595 720.644 451.266 722.011 449.532L718.711 446.931C716.92 449.203 716.094 451.335 715.975 453.437C715.859 455.483 716.431 457.276 716.985 458.775C718.141 461.898 719.169 463.915 717.934 466.926L721.821 468.521ZM722.01 449.532C725.136 445.572 728.469 441.261 729.955 436.414C731.5 431.369 731.008 425.916 726.984 419.82L723.478 422.134C726.854 427.25 727.093 431.411 725.937 435.183C724.721 439.154 721.92 442.864 718.712 446.93L722.01 449.532ZM726.984 419.819C723.267 414.191 720.495 409.766 718.997 406.148C717.5 402.532 717.497 400.25 718.511 398.528L714.89 396.396C712.872 399.825 713.437 403.701 715.115 407.755C716.793 411.808 719.801 416.566 723.478 422.135L726.984 419.819ZM718.51 398.53C718.739 398.141 718.673 398.484 718.158 398.545C717.708 398.597 717.571 398.348 717.86 398.598C718.442 399.101 719.218 400.275 720.16 401.944C720.999 403.431 721.972 405.318 722.797 406.589C723.2 407.21 723.718 407.932 724.333 408.425C724.646 408.676 725.158 409.01 725.838 409.101C726.628 409.208 727.365 408.95 727.918 408.466L725.15 405.305C725.446 405.046 725.905 404.871 726.398 404.937C726.6 404.964 726.747 405.024 726.83 405.066C726.913 405.108 726.956 405.143 726.96 405.145C726.965 405.149 726.948 405.136 726.91 405.097C726.874 405.058 726.825 405.003 726.764 404.927C726.641 404.773 726.494 404.567 726.322 404.302C725.587 403.169 724.801 401.618 723.819 399.879C722.941 398.322 721.834 396.48 720.608 395.42C719.992 394.888 718.969 394.22 717.67 394.371C716.304 394.531 715.424 395.492 714.891 396.394L718.51 398.53ZM727.912 408.471C728.837 407.667 729.013 406.586 728.925 405.753C728.846 404.996 728.546 404.278 728.261 403.706C727.692 402.563 726.752 401.201 726 400.047C725.177 398.787 724.506 397.675 724.162 396.738C723.994 396.282 723.948 395.979 723.95 395.801C723.951 395.72 723.961 395.68 723.965 395.668C723.968 395.66 723.97 395.656 723.977 395.647L720.645 393.087C719.334 394.793 719.707 396.797 720.218 398.188C720.748 399.629 721.675 401.108 722.48 402.343C723.355 403.685 724.074 404.724 724.5 405.579C724.598 405.775 724.663 405.929 724.703 406.045C724.745 406.165 724.748 406.209 724.746 406.192C724.739 406.118 724.742 405.659 725.156 405.3L727.912 408.471ZM723.969 395.657C723.913 395.729 723.741 395.906 723.43 395.997C723.128 396.085 722.897 396.032 722.822 396.008C722.765 395.99 722.967 396.061 723.452 396.547C724.363 397.464 725.455 398.99 726.675 400.723C727.813 402.339 729.094 404.18 730.234 405.347C730.755 405.879 731.555 406.607 732.547 406.865C733.129 407.016 733.847 407.023 734.552 406.67C735.225 406.333 735.642 405.789 735.896 405.308L732.181 403.345C732.19 403.328 732.321 403.088 732.671 402.913C733.054 402.721 733.413 402.748 733.604 402.798C733.816 402.853 733.71 402.892 733.238 402.409C732.393 401.545 731.341 400.051 730.111 398.304C728.962 396.673 727.649 394.808 726.43 393.584C725.848 392.999 725.054 392.312 724.108 392.008C723.587 391.841 722.939 391.763 722.25 391.964C721.553 392.168 721.026 392.597 720.652 393.077L723.969 395.657ZM735.893 405.315C736.282 404.584 736.293 403.803 736.255 403.279C736.213 402.701 736.082 402.086 735.913 401.478C735.576 400.257 735.006 398.781 734.317 397.175C732.935 393.955 730.929 389.886 728.922 385.723C726.898 381.522 724.856 377.193 723.334 373.334C721.775 369.379 720.904 366.254 720.948 364.34L716.747 364.245C716.682 367.103 717.878 370.951 719.426 374.875C721.01 378.895 723.114 383.35 725.137 387.547C727.178 391.781 729.122 395.723 730.456 398.831C731.124 400.389 731.603 401.657 731.864 402.598C731.995 403.071 732.05 403.391 732.064 403.583C732.082 403.828 732.018 403.652 732.185 403.339L735.893 405.315ZM720.948 364.344C721.019 361.432 719.975 358.63 718.622 356.006C717.279 353.401 715.463 350.675 713.834 348.045C710.462 342.603 707.67 337.216 708.401 331.174L704.23 330.669C703.306 338.305 706.896 344.824 710.262 350.258C712.003 353.067 713.645 355.522 714.888 357.932C716.122 360.325 716.793 362.374 716.747 364.241L720.948 364.344ZM708.401 331.175C709.303 323.757 706.408 314.139 703.243 306.219C700.034 298.191 696.354 291.448 695.273 289.591L691.642 291.705C692.645 293.429 696.226 299.984 699.341 307.778C702.499 315.68 704.991 324.409 704.23 330.668L708.401 331.175ZM695.275 289.596C695.245 289.544 695.084 289.131 695.54 287.702C695.969 286.361 696.711 284.779 697.605 282.731C699.316 278.811 701.383 273.621 700.902 267.846L696.715 268.195C697.101 272.824 695.454 277.155 693.754 281.051C692.942 282.911 692.053 284.811 691.538 286.423C691.051 287.948 690.631 289.959 691.639 291.701L695.275 289.596ZM700.902 267.841C700.486 262.983 701.548 260.212 702.999 258.692C704.448 257.175 706.693 256.476 709.59 256.664L709.862 252.472C706.215 252.235 702.557 253.071 699.96 255.79C697.367 258.506 696.242 262.674 696.716 268.2L700.902 267.841ZM709.59 256.664C711.873 256.813 713.795 255.932 714.769 254.055C715.634 252.389 715.5 250.395 714.973 248.698C713.918 245.295 710.793 241.537 706.216 240.755L705.508 244.896C708.175 245.352 710.258 247.678 710.961 249.943C711.313 251.08 711.197 251.816 711.04 252.119C710.993 252.211 710.855 252.536 709.862 252.472L709.59 256.664ZM706.215 240.755C704.646 240.487 703.848 240.068 703.349 239.653C702.821 239.215 702.433 238.631 701.888 237.619C700.77 235.544 699.406 232.499 695.134 229.257L692.595 232.605C696.062 235.236 697.061 237.518 698.189 239.612C698.767 240.685 699.472 241.896 700.666 242.887C701.889 243.901 703.441 244.544 705.509 244.897L706.215 240.755ZM695.132 229.256C692.877 227.549 689.908 226.404 686.78 225.604C683.626 224.798 680.155 224.303 676.781 223.987C673.401 223.669 670.072 223.526 667.199 223.435C664.28 223.343 661.924 223.306 660.333 223.203L660.06 227.396C661.744 227.505 664.267 227.547 667.066 227.635C669.91 227.725 673.137 227.865 676.388 228.17C679.645 228.476 682.878 228.943 685.739 229.675C688.626 230.414 690.981 231.384 692.597 232.606L695.132 229.256ZM660.333 223.203C658.105 223.058 656.267 223.805 654.713 224.826C653.229 225.802 651.853 227.14 650.641 228.256C648.087 230.608 645.774 232.444 642.242 232.356L642.137 236.556C647.479 236.69 650.894 233.735 653.487 231.347C654.849 230.093 655.901 229.073 657.021 228.337C658.071 227.647 659.012 227.328 660.06 227.396L660.333 223.203ZM642.234 232.355C637.621 232.259 634.913 232.894 632.791 234.684C631.819 235.505 631.057 236.501 630.342 237.451C629.602 238.437 628.838 239.479 627.768 240.665L630.887 243.48C632.108 242.127 632.988 240.924 633.701 239.976C634.44 238.993 634.941 238.368 635.501 237.895C636.443 237.1 637.874 236.467 642.146 236.556L642.234 232.355ZM627.771 240.661C627.147 241.349 625.685 242.04 622.947 242.433C620.311 242.812 616.908 242.861 612.908 242.671C604.909 242.291 594.944 240.978 584.724 239.729L584.215 243.899C594.337 245.137 604.51 246.478 612.709 246.868C616.808 247.063 620.519 247.027 623.544 246.592C626.469 246.172 629.216 245.321 630.883 243.485L627.771 240.661ZM584.721 239.728C574.36 238.477 566.577 239.222 560.827 241.496C555.004 243.797 551.377 247.625 549.347 252.226L553.191 253.922C554.777 250.327 557.582 247.296 562.372 245.403C567.234 243.481 574.242 242.695 584.218 243.9L584.721 239.728ZM549.348 252.222C548.839 253.369 547.791 254.357 546.096 255.255C544.394 256.157 542.256 256.856 539.852 257.538C537.531 258.196 534.889 258.855 532.541 259.636C530.182 260.421 527.821 261.418 525.991 262.905L528.641 266.166C529.87 265.168 531.646 264.362 533.868 263.623C536.101 262.88 538.483 262.293 540.998 261.58C543.43 260.89 545.939 260.093 548.063 258.968C550.194 257.839 552.149 256.27 553.189 253.926L549.348 252.222ZM525.994 262.903C523.215 265.151 520.8 266.224 517.344 266.593C513.72 266.981 508.952 266.597 501.423 265.73L500.942 269.904C508.388 270.762 513.624 271.216 517.791 270.771C522.126 270.308 525.29 268.877 528.637 266.169L525.994 262.903ZM501.425 265.73C493.548 264.815 485.901 266.232 479.067 268.225C475.646 269.223 472.401 270.374 469.419 271.464C466.412 272.564 463.723 273.582 461.306 274.362L462.597 278.361C465.115 277.548 467.927 276.484 470.862 275.411C473.823 274.328 476.962 273.216 480.244 272.259C486.817 270.342 493.85 269.08 500.94 269.904L501.425 265.73ZM461.304 274.363C456.745 275.84 450.221 275.991 443.344 275.929C436.685 275.87 429.64 275.606 424.692 276.493L425.434 280.628C429.878 279.832 436.338 280.068 443.306 280.131C450.055 280.191 457.28 280.084 462.599 278.36L461.304 274.363ZM424.688 276.493C422.928 276.813 421.679 276.423 420.549 275.655C419.296 274.804 418.198 273.502 416.83 271.852C414.258 268.752 410.861 264.513 404.464 264.796L404.65 268.994C408.722 268.813 410.88 271.261 413.596 274.535C414.871 276.073 416.349 277.881 418.187 279.13C420.147 280.461 422.501 281.161 425.438 280.627L424.688 276.493ZM404.46 264.796C399.581 265.022 396.153 264.094 393.227 263.083C390.433 262.118 387.479 260.783 384.3 260.802L384.325 265.003C386.565 264.99 388.498 265.895 391.854 267.054C395.078 268.168 399.063 269.253 404.654 268.993L404.46 264.796ZM384.297 260.802C383.225 260.809 382.64 260.613 382.264 260.408C381.857 260.186 381.515 259.862 380.999 259.281C379.94 258.087 378.505 256.21 375.181 255.285L374.054 259.332C376.05 259.888 376.754 260.828 377.857 262.07C378.423 262.708 379.168 263.506 380.255 264.098C381.374 264.707 382.69 265.015 384.328 265.003L384.297 260.802ZM375.189 255.287C374.127 254.987 373.621 254.602 373.384 254.316C373.174 254.063 373.047 253.738 373.067 253.219C373.114 252.007 373.96 250.139 375.789 247.85L372.506 245.228C370.547 247.679 368.97 250.444 368.869 253.056C368.815 254.449 369.183 255.833 370.151 257C371.093 258.134 372.449 258.879 374.046 259.33L375.189 255.287ZM375.783 247.857C376.409 247.081 376.912 246.16 376.987 245.093C377.066 243.974 376.651 243.039 376.102 242.318C375.583 241.636 374.892 241.073 374.223 240.596C373.541 240.11 372.745 239.621 371.94 239.13C368.662 237.133 364.504 234.659 361.461 229.92L357.926 232.19C361.554 237.842 366.524 240.751 369.755 242.719C370.577 243.22 371.245 243.633 371.784 244.017C372.336 244.411 372.623 244.684 372.759 244.864C372.866 245.003 372.785 244.953 372.796 244.798C372.803 244.696 372.836 244.818 372.512 245.221L375.783 247.857ZM361.461 229.92C359.889 227.472 359.21 225.703 358.944 224.352C358.684 223.031 358.79 221.973 359.011 220.849C359.216 219.813 359.642 218.282 359.735 216.724C359.837 215.017 359.585 213.148 358.621 210.888L354.756 212.537C355.473 214.218 355.603 215.438 355.541 216.473C355.471 217.657 355.188 218.522 354.889 220.037C354.608 221.464 354.418 223.115 354.821 225.163C355.218 227.181 356.162 229.443 357.926 232.19L361.461 229.92ZM358.621 210.889C357.764 208.876 356.816 207.146 355.592 206.037C354.946 205.451 354.177 204.995 353.272 204.797C352.364 204.599 351.473 204.694 350.639 204.97C349.069 205.49 347.537 206.711 346 208.218C344.418 209.769 342.608 211.857 340.502 214.407L343.741 217.083C345.836 214.547 347.528 212.604 348.942 211.217C350.402 209.786 351.358 209.158 351.961 208.959C352.214 208.875 352.33 208.892 352.375 208.902C352.422 208.912 352.551 208.951 352.77 209.15C353.279 209.611 353.938 210.615 354.755 212.535L358.621 210.889ZM340.501 214.407C338.6 216.711 336.783 217.951 335.129 218.692C333.443 219.447 331.845 219.724 330.197 220.003C328.678 220.26 326.769 220.549 325.201 221.578C323.457 222.721 322.402 224.546 321.893 227.185L326.018 227.981C326.385 226.081 326.989 225.429 327.505 225.091C328.194 224.639 329.144 224.443 330.898 224.146C332.523 223.871 334.614 223.527 336.847 222.527C339.113 221.512 341.445 219.865 343.742 217.082L340.501 214.407ZM321.893 227.185C321.098 231.302 318.667 235.731 315.902 238.496C314.516 239.883 313.203 240.693 312.141 240.964C311.206 241.202 310.471 241.043 309.772 240.368L306.852 243.389C308.702 245.177 310.977 245.597 313.179 245.035C315.255 244.506 317.206 243.135 318.874 241.467C322.218 238.122 325.061 232.94 326.018 227.981L321.893 227.185ZM309.77 240.366C309.257 239.872 309.064 239.547 308.991 239.366C308.937 239.23 308.924 239.121 308.962 238.941C309.012 238.707 309.151 238.353 309.483 237.795C309.814 237.24 310.259 236.607 310.839 235.796C313.167 232.54 316.851 227.536 319.25 218.494L315.189 217.416C312.991 225.704 309.672 230.205 307.422 233.351C306.857 234.14 306.309 234.914 305.873 235.645C305.439 236.373 305.039 237.185 304.852 238.07C304.653 239.009 304.706 239.972 305.094 240.937C305.465 241.855 306.092 242.657 306.854 243.392L309.77 240.366ZM319.25 218.495C320.372 214.274 321.499 211.915 322.465 210.606C323.367 209.383 324.085 209.127 324.584 209.038C324.898 208.982 325.232 208.976 325.667 208.992C326.017 209.005 326.669 209.052 327.224 209.011C327.852 208.965 328.675 208.8 329.43 208.205C330.178 207.615 330.614 206.799 330.876 205.935L326.856 204.714C326.749 205.067 326.687 205.017 326.83 204.904C326.98 204.786 327.089 204.808 326.916 204.821C326.67 204.839 326.432 204.816 325.824 204.794C325.301 204.774 324.608 204.765 323.846 204.901C322.195 205.196 320.566 206.103 319.084 208.111C317.665 210.034 316.37 212.975 315.19 217.415L319.25 218.495ZM330.877 205.934C331.682 203.277 329.765 201.304 328.161 200.28C326.414 199.166 324.055 198.44 321.715 198.207C319.383 197.975 316.785 198.206 314.636 199.307C312.368 200.47 310.697 202.575 310.496 205.665L314.689 205.938C314.786 204.449 315.483 203.594 316.553 203.046C317.743 202.436 319.453 202.205 321.3 202.388C323.138 202.571 324.828 203.138 325.901 203.822C326.439 204.165 326.704 204.463 326.81 204.641C326.856 204.719 326.858 204.751 326.856 204.74C326.854 204.722 326.858 204.708 326.855 204.715L330.877 205.934ZM310.496 205.665C310.354 207.856 310.052 209.633 309.632 210.932C309.189 212.307 308.726 212.8 308.531 212.922C308.482 212.952 308.464 212.955 308.418 212.952C308.342 212.947 308.125 212.907 307.745 212.673C306.948 212.182 305.81 211.066 304.367 208.955L300.898 211.326C302.463 213.615 304 215.3 305.541 216.25C307.172 217.255 309.057 217.549 310.759 216.484C312.229 215.565 313.091 213.895 313.631 212.223C314.195 210.476 314.534 208.323 314.689 205.938L310.496 205.665ZM304.371 208.961C303.125 207.123 302.823 205.551 302.935 204.173C303.053 202.734 303.638 201.324 304.472 199.871C304.887 199.148 305.341 198.45 305.808 197.741C306.261 197.054 306.747 196.326 307.153 195.631C307.876 194.391 308.833 192.501 308.181 190.539L304.194 191.864C304.193 191.863 304.282 192.215 303.524 193.512C303.189 194.085 302.781 194.7 302.3 195.43C301.833 196.138 301.313 196.933 300.828 197.78C299.86 199.466 298.938 201.503 298.748 203.831C298.552 206.221 299.142 208.737 300.894 211.32L304.371 208.961ZM308.184 190.547C307.901 189.684 307.4 188.952 306.682 188.419C305.987 187.902 305.209 187.661 304.492 187.557C303.128 187.36 301.606 187.618 300.318 187.899C299.644 188.046 298.954 188.218 298.305 188.38C297.643 188.544 297.019 188.698 296.422 188.825C295.166 189.092 294.308 189.171 293.77 189.082L293.086 193.228C294.465 193.455 295.999 193.21 297.295 192.935C297.974 192.791 298.666 192.62 299.319 192.457C299.985 192.291 300.61 192.135 301.212 192.004C302.474 191.729 303.343 191.637 303.893 191.716C304.132 191.75 304.192 191.803 304.175 191.791C304.136 191.762 304.154 191.743 304.192 191.857L308.184 190.547ZM293.774 189.083C292.716 188.906 291.304 188.087 289.722 186.473C288.183 184.903 286.677 182.778 285.409 180.403C284.143 178.032 283.152 175.482 282.599 173.097C282.04 170.68 281.97 168.599 282.367 167.077L278.301 166.017C277.666 168.451 277.867 171.283 278.506 174.044C279.153 176.837 280.288 179.732 281.703 182.382C283.116 185.028 284.845 187.5 286.722 189.414C288.555 191.285 290.738 192.836 293.082 193.227L293.774 189.083ZM282.367 167.076C283.339 163.338 284.742 158.959 284.027 154.635C283.268 150.044 280.262 145.88 273.589 142.007L271.48 145.641C277.472 149.119 279.393 152.364 279.882 155.32C280.415 158.543 279.385 161.85 278.301 166.018L282.367 167.076ZM273.586 142.006C267.415 138.44 265.694 136.555 264.075 135.28C263.138 134.542 262.216 133.997 260.801 133.632C259.512 133.299 257.842 133.123 255.44 132.967L255.168 137.16C257.581 137.317 258.888 137.477 259.75 137.7C260.488 137.891 260.894 138.123 261.475 138.581C262.893 139.697 264.972 141.88 271.483 145.643L273.586 142.006ZM255.44 132.967C251.009 132.68 243.999 130.419 237.315 127.508C234.012 126.07 230.861 124.506 228.238 123.009C225.578 121.49 223.588 120.113 222.509 119.069L219.589 122.091C221.057 123.51 223.42 125.097 226.156 126.658C228.929 128.241 232.218 129.872 235.638 131.361C242.4 134.305 249.97 136.823 255.168 137.16L255.44 132.967ZM222.508 119.068C220.667 117.292 218.147 116.756 215.688 116.889C213.216 117.023 210.558 117.836 208.055 119.066C203.109 121.498 198.19 125.863 196.304 131.03L200.25 132.471C201.645 128.653 205.563 124.973 209.909 122.837C212.052 121.783 214.153 121.18 215.915 121.085C217.691 120.988 218.882 121.409 219.59 122.092L222.508 119.068ZM196.305 131.025C195.632 132.855 194.836 133.28 194.446 133.383C193.984 133.506 193.325 133.387 192.639 132.867C191.936 132.336 191.565 131.648 191.505 131.207C191.48 131.021 191.514 130.929 191.541 130.879C191.566 130.832 191.668 130.673 192.039 130.494L190.217 126.708C189.191 127.202 188.364 127.925 187.849 128.873C187.335 129.818 187.215 130.833 187.341 131.767C187.583 133.568 188.731 135.179 190.103 136.217C191.491 137.268 193.461 137.992 195.523 137.445C197.656 136.879 199.275 135.122 200.249 132.475L196.305 131.025ZM192.043 130.492C194.055 129.519 195.151 127.893 195.264 126.023C195.365 124.329 194.642 122.768 193.788 121.671C192.981 120.634 191.675 119.533 190.132 119.369C189.255 119.277 188.275 119.499 187.494 120.248C186.768 120.943 186.444 121.873 186.317 122.756L190.476 123.352C190.526 123.002 190.595 123.096 190.4 123.282C190.15 123.522 189.838 123.563 189.689 123.548C189.6 123.538 189.664 123.524 189.865 123.661C190.048 123.786 190.266 123.986 190.473 124.251C190.914 124.819 191.092 125.399 191.069 125.771C191.06 125.927 191.018 126.051 190.934 126.17C190.846 126.294 190.651 126.498 190.214 126.71L192.043 130.492ZM186.316 122.759C186.159 123.865 185.9 124.894 185.594 125.715C185.267 126.594 184.963 127.027 184.839 127.147C184.789 127.195 184.926 127.037 185.261 126.985C185.67 126.921 186.001 127.071 186.157 127.191C186.259 127.271 186.2 127.268 186.055 126.98C185.919 126.709 185.753 126.278 185.582 125.636L181.522 126.717C181.74 127.536 181.996 128.259 182.302 128.867C182.599 129.458 183.003 130.061 183.578 130.508C184.206 130.997 185.019 131.275 185.908 131.136C186.722 131.009 187.338 130.573 187.752 130.174C188.556 129.4 189.128 128.264 189.532 127.181C189.956 126.041 190.283 124.713 190.476 123.349L186.316 122.759ZM185.582 125.636C184.584 121.884 181.815 119.939 179.561 118.488C177.111 116.911 175.415 115.938 174.537 114.197L170.785 116.089C172.303 119.098 175.277 120.727 177.286 122.021C179.491 123.44 180.969 124.638 181.522 126.716L185.582 125.636ZM174.536 114.196C173.323 111.794 171.882 109.428 170.574 108.145C170.236 107.813 169.81 107.456 169.31 107.208C168.817 106.963 167.993 106.704 167.076 107.034C166.143 107.369 165.662 108.115 165.429 108.676C165.198 109.234 165.103 109.853 165.065 110.438L169.258 110.71C169.281 110.342 169.329 110.24 169.311 110.285C169.291 110.333 169.091 110.774 168.498 110.987C167.92 111.195 167.493 110.997 167.443 110.972C167.385 110.943 167.448 110.964 167.631 111.144C168.41 111.908 169.595 113.733 170.785 116.09L174.536 114.196ZM165.065 110.438C164.96 112.053 164.55 113.374 163.645 114.482C162.727 115.606 161.124 116.728 158.23 117.594L159.436 121.619C162.857 120.595 165.294 119.106 166.899 117.139C168.518 115.157 169.115 112.907 169.258 110.71L165.065 110.438ZM158.227 117.595C154.796 118.63 151.989 120.215 149.207 122.122C147.824 123.069 146.431 124.108 144.98 125.196C143.519 126.291 141.991 127.442 140.292 128.654L142.732 132.074C144.479 130.828 146.051 129.644 147.5 128.558C148.958 127.465 150.283 126.478 151.582 125.588C154.162 123.819 156.57 122.483 159.44 121.618L158.227 117.595ZM140.295 128.652C138.985 129.583 136.418 130.408 132.891 131.035C129.461 131.645 125.444 132.017 121.506 132.235C113.623 132.671 106.276 132.475 105.022 132.394L104.75 136.586C106.189 136.68 113.706 136.874 121.738 136.43C125.759 136.208 129.962 135.823 133.626 135.172C137.192 134.538 140.591 133.598 142.73 132.076L140.295 128.652ZM105.022 132.394C104.053 132.331 103.34 132.81 102.941 133.185C102.54 133.56 102.243 134.017 102.021 134.422C101.57 135.243 101.172 136.33 100.81 137.515C100.077 139.92 99.3574 143.206 98.6647 146.782C97.9689 150.375 97.2865 154.336 96.6372 158.112C95.9856 161.902 95.369 165.496 94.7987 168.4L98.9216 169.209C99.5036 166.246 100.13 162.596 100.778 158.824C101.429 155.04 102.104 151.123 102.79 147.581C103.479 144.024 104.165 140.92 104.829 138.74C105.166 137.634 105.465 136.879 105.704 136.444C105.827 136.22 105.873 136.195 105.814 136.251C105.755 136.305 105.382 136.628 104.75 136.586L105.022 132.394ZM94.799 168.398C93.7715 173.611 91.0678 176.465 87.9384 179.816C84.7849 183.193 81.2871 187.002 79.9917 193.873L84.1207 194.652C85.1784 189.041 87.927 185.984 91.0093 182.684C94.1158 179.357 97.6376 175.723 98.9213 169.211L94.799 168.398ZM79.992 193.872C78.8875 199.712 74.7292 208.154 70.2674 215.387C68.0583 218.968 65.8281 222.167 63.9544 224.505C63.0146 225.678 62.1927 226.598 61.5301 227.234C61.1982 227.553 60.9354 227.771 60.742 227.909C60.5208 228.066 60.5014 228.037 60.6459 228L61.6855 232.071C62.2732 231.921 62.7864 231.61 63.1754 231.334C63.5922 231.038 64.0172 230.671 64.439 230.266C65.2837 229.456 66.2326 228.381 67.2331 227.133C69.2399 224.629 71.5682 221.281 73.8434 217.593C78.3503 210.287 82.8644 201.294 84.1205 194.653L79.992 193.872ZM60.6342 228.003C58.6797 228.514 55.8054 229.597 53.2666 231.599C50.6931 233.628 48.412 236.652 47.9163 240.944L52.0902 241.426C52.429 238.493 53.9555 236.406 55.8679 234.898C57.8149 233.363 60.1046 232.484 61.6972 232.068L60.6342 228.003ZM47.9172 240.936C47.7471 242.358 47.1405 243.905 46.1859 245.656C45.2283 247.412 44.0217 249.2 42.7314 251.174C40.2498 254.97 37.4272 259.464 37.1018 264.473L41.2946 264.746C41.5379 261 43.6857 257.393 46.2484 253.472C47.4803 251.588 48.8144 249.612 49.8748 247.667C50.9384 245.717 51.8273 243.624 52.0892 241.435L47.9172 240.936ZM37.1018 264.473C36.8385 268.526 35.3763 272.954 33.9537 276.893C33.2633 278.805 32.5616 280.659 32.0868 282.167C31.8471 282.929 31.6425 283.672 31.521 284.348C31.407 284.982 31.3246 285.766 31.4929 286.518L35.5932 285.601C35.6099 285.676 35.5728 285.556 35.6563 285.091C35.7322 284.669 35.8772 284.12 36.0947 283.429C36.5344 282.032 37.1776 280.337 37.9056 278.321C39.3197 274.405 40.9882 269.463 41.2946 264.746L37.1018 264.473ZM31.4926 286.517C31.8199 287.984 32.5258 290.524 32.4697 293.419C32.4146 296.259 31.6222 299.215 29.0802 301.564L31.9317 304.65C35.5722 301.286 36.6012 297.076 36.6705 293.5C36.7388 289.979 35.8721 286.852 35.5935 285.602L31.4926 286.517ZM29.0794 301.564C25.087 305.257 25.6756 309.685 26.4486 312.787C26.6383 313.549 26.8611 314.314 27.0287 314.926C27.2075 315.578 27.3326 316.088 27.3948 316.508C27.5296 317.42 27.2756 317.136 27.5599 316.952L29.8448 320.478C31.7429 319.248 31.7455 317.208 31.5513 315.894C31.449 315.201 31.2632 314.481 31.0812 313.816C30.888 313.111 30.7 312.471 30.5256 311.771C29.8418 309.027 29.7182 306.697 31.9325 304.649L29.0794 301.564ZM393.129 642.526C393.31 644.291 394.746 645.193 395.735 645.614C396.819 646.075 398.167 646.325 399.547 646.456C402.343 646.721 405.861 646.544 409.127 646.065C412.353 645.593 415.6 644.789 417.749 643.662C418.75 643.136 419.971 642.311 420.496 641.015C420.793 640.283 420.835 639.472 420.567 638.679C420.315 637.933 419.837 637.339 419.32 636.872L416.504 639.991C416.681 640.15 416.636 640.169 416.586 640.023C416.521 639.829 416.535 639.603 416.602 639.437C416.668 639.273 416.626 639.506 415.797 639.941C414.284 640.735 411.601 641.457 408.519 641.908C405.478 642.353 402.312 642.497 399.943 642.273C398.739 642.159 397.885 641.962 397.38 641.748C396.782 641.493 397.247 641.492 397.309 642.098L393.129 642.526ZM419.317 636.869C418.502 636.137 417.429 635.707 416.41 635.434C415.354 635.151 414.148 634.984 412.893 634.902C410.379 634.739 407.459 634.906 404.702 635.326C401.962 635.743 399.241 636.432 397.175 637.383C396.151 637.855 395.157 638.449 394.41 639.212C393.646 639.991 392.987 641.12 393.129 642.523L397.309 642.101C397.334 642.348 397.183 642.385 397.411 642.153C397.655 641.903 398.137 641.566 398.932 641.2C400.505 640.476 402.8 639.866 405.334 639.48C407.851 639.096 410.463 638.955 412.62 639.095C413.7 639.165 414.615 639.303 415.324 639.493C416.071 639.693 416.407 639.903 416.508 639.994L419.317 636.869ZM339.384 183.783C337.988 182.355 335.901 181.478 333.793 180.966C331.632 180.44 329.185 180.234 326.809 180.337C324.439 180.44 322.04 180.854 319.996 181.641C318.001 182.409 316.049 183.651 315.044 185.607L318.782 187.526C319.108 186.892 319.944 186.163 321.506 185.562C323.021 184.979 324.949 184.623 326.991 184.535C329.026 184.447 331.073 184.628 332.801 185.048C334.583 185.481 335.782 186.108 336.38 186.72L339.384 183.783ZM315.043 185.609C314.72 186.241 314.523 187.019 314.691 187.858C314.859 188.697 315.335 189.32 315.838 189.748C316.755 190.528 318.044 190.907 319.181 191.124C321.577 191.581 324.838 191.58 327.928 191.313C331.026 191.045 334.201 190.488 336.437 189.708C337.482 189.344 338.66 188.821 339.426 188.014C339.843 187.574 340.302 186.874 340.309 185.94C340.317 184.99 339.853 184.259 339.381 183.779L336.384 186.724C336.36 186.699 336.104 186.419 336.108 185.908C336.112 185.414 336.356 185.144 336.378 185.122C336.396 185.102 336.325 185.178 336.066 185.316C335.823 185.445 335.488 185.589 335.053 185.741C333.279 186.359 330.49 186.874 327.566 187.127C324.634 187.381 321.814 187.349 319.968 186.997C319.518 186.911 319.169 186.814 318.913 186.717C318.646 186.616 318.556 186.544 318.561 186.547C318.58 186.564 318.748 186.721 318.811 187.034C318.873 187.347 318.775 187.54 318.783 187.524L315.043 185.609ZM170.783 70.0637C173.022 69.9598 175.63 70.5006 178.445 71.4632C181.242 72.4197 184.108 73.744 186.837 75.0961C189.498 76.4145 192.158 77.8281 194.27 78.8056C195.343 79.3022 196.374 79.7348 197.295 80.0175C198.144 80.2779 199.216 80.5165 200.228 80.3081L199.381 76.1928C199.461 76.1763 199.251 76.2224 198.528 76.0007C197.878 75.8014 197.049 75.4622 196.035 74.9926C193.972 74.0377 191.547 72.741 188.702 71.3313C185.926 69.9554 182.865 68.534 179.804 67.4875C176.762 66.4472 173.581 65.7277 170.588 65.8666L170.783 70.0637ZM200.212 80.3115C201.183 80.1197 201.893 79.496 202.275 78.7048C202.603 78.0268 202.659 77.3039 202.649 76.7409C202.629 75.5993 202.309 74.2037 201.901 72.7851C201.074 69.9117 199.612 66.0667 198.276 62.2639C196.909 58.3724 195.643 54.4468 195.063 51.1304C194.773 49.4736 194.673 48.0676 194.777 46.9507C194.883 45.8247 195.177 45.1815 195.496 44.8258L192.366 42.0222C191.227 43.2941 190.746 44.9333 190.594 46.5589C190.441 48.1935 190.601 50.008 190.924 51.8549C191.57 55.5462 192.944 59.7611 194.312 63.6563C195.711 67.6403 197.08 71.2281 197.863 73.947C198.259 75.3246 198.438 76.2651 198.448 76.8136C198.453 77.0956 198.405 77.0562 198.492 76.877C198.633 76.5847 198.964 76.2751 199.398 76.1893L200.212 80.3115ZM195.496 44.826C197.818 42.2342 197.244 38.6733 196.016 35.6955C194.732 32.5813 192.399 29.2178 189.746 26.1216C187.076 23.005 183.985 20.0466 181.076 17.7493C178.252 15.52 175.325 13.6914 173.013 13.1743L172.096 17.2746C173.409 17.5683 175.696 18.8553 178.472 21.0472C181.162 23.171 184.058 25.9393 186.556 28.8552C189.071 31.7916 191.088 34.7667 192.132 37.2975C193.232 39.9648 192.964 41.3553 192.367 42.022L195.496 44.826ZM173.01 13.1736C170.82 12.6872 168.994 12.9076 167.51 13.8473C166.121 14.727 165.343 16.0591 164.829 17.0189C164.217 18.1628 163.975 18.7319 163.59 19.1585C163.453 19.3094 163.365 19.3553 163.311 19.3758C163.26 19.3953 163.111 19.4405 162.777 19.3936L162.193 23.5545C163.107 23.6828 163.983 23.6139 164.798 23.3058C165.61 22.9986 166.23 22.5037 166.706 21.9761C167.547 21.0457 168.156 19.7077 168.534 19.0009C169.011 18.1101 169.362 17.6482 169.758 17.3971C170.06 17.2061 170.675 16.959 172.099 17.2753L173.01 13.1736ZM162.783 19.3945C161.193 19.1666 159.679 19.3743 158.492 20.3561C157.369 21.2853 156.935 22.5954 156.724 23.636C156.511 24.6804 156.45 25.873 156.382 26.826C156.309 27.8659 156.225 28.7243 156.03 29.4437L160.085 30.5425C160.4 29.381 160.501 28.1447 160.573 27.1229C160.652 26.0141 160.698 25.178 160.841 24.4735C160.985 23.7652 161.155 23.6061 161.171 23.5929C161.175 23.5895 161.182 23.5841 161.199 23.5765C161.216 23.5685 161.254 23.5532 161.322 23.5394C161.464 23.5105 161.735 23.4888 162.187 23.5537L162.783 19.3945ZM156.03 29.443C155.959 29.7036 155.985 29.346 156.45 29.0706C156.692 28.927 156.94 28.8784 157.132 28.8774C157.22 28.8769 157.288 28.8865 157.329 28.8945C157.37 28.9026 157.393 28.9105 157.394 28.9107C157.394 28.911 157.381 28.9063 157.351 28.8924C157.322 28.8786 157.282 28.8582 157.231 28.829C157.126 28.7695 156.995 28.6862 156.831 28.573C156.49 28.3374 156.12 28.0513 155.643 27.69C154.761 27.0225 153.56 26.1265 152.226 25.5709C150.84 24.9934 149.093 24.6943 147.288 25.5241L149.044 29.3415C149.431 29.1632 149.89 29.1493 150.61 29.4494C151.383 29.7715 152.19 30.3456 153.106 31.0394C153.528 31.3589 154.003 31.7264 154.442 32.0295C154.865 32.3219 155.412 32.6684 156.005 32.8761C156.605 33.0866 157.604 33.27 158.59 32.6861C159.513 32.1397 159.901 31.2212 160.085 30.5432L156.03 29.443ZM147.287 25.5247C146.147 26.05 145.442 26.9912 145.001 27.9067C144.565 28.8139 144.309 29.8536 144.141 30.8657C143.81 32.8636 143.741 35.3152 143.627 37.4093C143.506 39.6486 143.334 41.4757 142.914 42.7009C142.71 43.2943 142.513 43.5442 142.412 43.6327C142.377 43.6639 142.328 43.7197 142.08 43.7035L141.807 47.8963C143.1 47.9803 144.266 47.6003 145.191 46.7842C146.051 46.0255 146.562 45.0166 146.888 44.0645C147.529 42.1985 147.706 39.7869 147.823 37.6365C147.947 35.3408 148.004 33.2516 148.286 31.554C148.425 30.7183 148.598 30.1216 148.788 29.7283C148.973 29.3432 149.09 29.3199 149.045 29.3409L147.287 25.5247ZM142.08 43.7035C140.653 43.6108 139.428 44.1483 138.53 45.1203C137.71 46.0084 137.24 47.1684 136.952 48.2965C136.374 50.5582 136.327 53.5114 136.504 56.4648C136.861 62.4406 138.195 69.2535 138.959 72.6041L143.056 71.6698C142.312 68.4097 141.035 61.8541 140.698 56.214C140.527 53.3595 140.612 50.943 141.023 49.3368C141.229 48.5311 141.467 48.1327 141.617 47.9709C141.689 47.893 141.695 47.889 141.807 47.8963L142.08 43.7035ZM138.96 72.6056C139.278 73.9979 140.087 75.0766 141.291 75.7257C142.395 76.321 143.669 76.4674 144.857 76.4406C147.219 76.3873 150.156 75.6115 153.099 74.7095C156.232 73.7494 159.224 72.6968 162.433 71.7519C165.559 70.8313 168.424 70.1645 170.775 70.0641L170.596 65.8663C167.706 65.9897 164.431 66.7835 161.246 67.7213C158.144 68.6347 154.656 69.838 151.868 70.6923C148.891 71.6046 146.47 72.2015 144.762 72.24C143.916 72.2591 143.478 72.1312 143.284 72.027C143.191 71.9766 143.116 71.9308 143.055 71.6684L138.96 72.6056Z" fill="white"/>
</g>
<ellipse cx="542.41" cy="363.088" rx="34.0753" ry="33.7517" transform="rotate(-176.283 542.41 363.088)" fill="url(#paint0_radial_2_48)"/>
<ellipse cx="345.692" cy="425.426" rx="34.0753" ry="33.7517" transform="rotate(-176.283 345.692 425.426)" fill="url(#paint1_radial_2_48)"/>
<ellipse cx="245.36" cy="281.871" rx="34.0753" ry="33.7517" transform="rotate(-176.283 245.36 281.871)" fill="url(#paint2_radial_2_48)"/>
<defs>
<filter id="filter0_d_2_48" x="0.00512123" y="0.243711" width="761.623" height="689.515" filterUnits="userSpaceOnUse" color-interpolation-filters="sRGB">
<feFlood flood-opacity="0" result="BackgroundImageFix"/>
<feColorMatrix in="SourceAlpha" type="matrix" values="0 0 0 0 0 0 0 0 0 0 0 0 0 0 0 0 0 0 127 0" result="hardAlpha"/>
<feOffset dy="12.6794"/>
<feGaussianBlur stdDeviation="12.6794"/>
<feColorMatrix type="matrix" values="0 0 0 0 0 0 0 0 0 0 0 0 0 0 0 0 0 0 0.01 0"/>
<feBlend mode="normal" in2="BackgroundImageFix" result="effect1_dropShadow_2_48"/>
<feBlend mode="normal" in="SourceGraphic" in2="effect1_dropShadow_2_48" result="shape"/>
</filter>
<radialGradient id="paint0_radial_2_48" cx="0" cy="0" r="1" gradientUnits="userSpaceOnUse" gradientTransform="translate(542.41 363.088) rotate(90) scale(33.7517 34.0753)">
<stop stop-color="white"/>
<stop offset="1" stop-color="#846DDF" stop-opacity="0"/>
</radialGradient>
<radialGradient id="paint1_radial_2_48" cx="0" cy="0" r="1" gradientUnits="userSpaceOnUse" gradientTransform="translate(345.692 425.426) rotate(90) scale(33.7517 34.0753)">
<stop stop-color="white"/>
<stop offset="1" stop-color="#846DDF" stop-opacity="0"/>
</radialGradient>
<radialGradient id="paint2_radial_2_48" cx="0" cy="0" r="1" gradientUnits="userSpaceOnUse" gradientTransform="translate(245.36 281.871) rotate(90) scale(33.7517 34.0753)">
<stop stop-color="white"/>
<stop offset="1" stop-color="#846DDF" stop-opacity="0"/>
</radialGradient>
</defs>
</svg>
